<svg width="32" height="32" viewBox="0 0 32 32" fill="none" xmlns="http://www.w3.org/2000/svg">
  <path d="M15.3974 25L18.924 8H23.03L20.1583 21.7943H29L28.3199 25H15.3974Z" fill="black" />
  <path
    d="M9.31476 25C8.04852 25 6.8645 24.8329 5.76271 24.4986C4.66091 24.1643 3.74001 23.6868 3 23.066L4.92403 20.2247C5.48315 20.7022 6.1656 21.0763 6.97139 21.3469C7.79362 21.6175 8.66519 21.7528 9.58609 21.7528C10.3754 21.7528 11.0414 21.6573 11.5841 21.4663C12.1432 21.2753 12.5626 20.9967 12.8421 20.6306C13.1381 20.2645 13.2861 19.8347 13.2861 19.3413C13.2861 18.7364 13.0477 18.2907 12.5708 18.0042C12.1104 17.7018 11.4032 17.5506 10.4494 17.5506H8.62408L9.14209 14.9958L14.9635 9.7191L15.2348 11.1039H6.13271L6.79872 8H18.8856L18.3922 10.507L12.5708 15.7837L10.6961 14.6854H11.5841C12.7846 14.6854 13.8124 14.8684 14.6675 15.2346C15.5226 15.5847 16.1804 16.0941 16.6409 16.7626C17.1013 17.4153 17.3315 18.1952 17.3315 19.1025C17.3315 20.2327 16.9862 21.2434 16.2955 22.1348C15.6213 23.0262 14.6757 23.7266 13.4588 24.236C12.2584 24.7453 10.877 25 9.31476 25Z"
    fill="#48BA02" />
</svg>
